<svg width="230" height="39" viewBox="0 0 230 39" fill="none" xmlns="http://www.w3.org/2000/svg">
<g id="Item">
<g id="airbnb">
<path id="Shape" fill-rule="evenodd" clip-rule="evenodd" d="M90.0421 26.9977L90.0422 26.9979C90.5623 28.3231 90.6779 29.5908 90.5045 30.8584C90.1 33.5089 88.3662 35.8136 85.8234 36.8508C84.8988 37.2541 83.9163 37.4269 82.8761 37.4269C82.5871 37.4269 82.2404 37.4269 81.9514 37.3693C80.7378 37.2541 79.5242 36.8508 78.3106 36.1593C76.8658 35.3527 75.421 34.1427 73.8029 32.4141C72.1847 34.1427 70.7978 35.3527 69.2952 36.1593C68.0816 36.8508 66.868 37.1965 65.6544 37.3693C65.5099 37.3693 65.3509 37.3837 65.192 37.3981C65.0331 37.4125 64.8742 37.4269 64.7297 37.4269C63.6895 37.4269 62.707 37.2541 61.7824 36.8508C59.2973 35.8136 57.448 33.5665 57.0435 30.8584C56.8701 29.5331 57.0435 28.2655 57.5058 26.9979C57.6792 26.4793 57.8526 26.076 58.0259 25.6727L58.026 25.6726C58.3149 25.0388 58.6039 24.405 58.835 23.8288L58.8928 23.7712C61.4356 18.355 64.094 12.8812 66.868 7.46504L66.9835 7.23456C67.2725 6.71601 67.5614 6.13985 67.8504 5.56368L67.8504 5.56361C67.9282 5.44167 68.0061 5.3176 68.0847 5.19222C68.4149 4.66589 68.7596 4.11644 69.1796 3.60456C70.3932 2.22171 72.0114 1.41504 73.8029 1.41504C75.5366 1.41504 77.2126 2.22171 78.3684 3.66218C78.9463 4.29599 79.3508 4.98742 79.6976 5.62123C79.9865 6.19742 80.2755 6.77361 80.5644 7.29218L80.68 7.52266C83.5118 12.9388 86.1702 18.4127 88.6552 23.8288H88.713C88.9441 24.405 89.2331 25.0388 89.522 25.6726L89.5221 25.6727C89.6954 26.0759 89.8687 26.5368 90.0421 26.9977ZM117.955 10.4612C117.955 11.7865 116.915 12.8236 115.586 12.8236C114.257 12.8236 113.216 11.7865 113.216 10.4612C113.216 9.13599 114.257 8.09885 115.586 8.09885C116.973 8.15647 117.955 9.19361 117.955 10.4612ZM108.304 15.186V15.7622C108.304 15.7622 107.206 14.3217 104.779 14.3217C100.849 14.3217 97.7862 17.3179 97.7862 21.4665C97.7862 25.5574 100.849 28.6112 104.779 28.6112C107.206 28.6112 108.304 27.1131 108.304 27.1131V27.7469C108.304 28.035 108.535 28.2655 108.824 28.2655H111.772V14.6674H108.824C108.478 14.6674 108.304 14.8979 108.304 15.186ZM105.357 25.3269C106.686 25.3269 107.784 24.6355 108.304 23.8288V18.9888C107.784 18.2398 106.628 17.4908 105.357 17.4908C103.045 17.4908 101.254 18.9312 101.254 21.4088C101.254 23.8865 103.045 25.3269 105.357 25.3269ZM113.852 14.6674H117.32V28.2079H113.852V14.6674ZM162.165 15.7622C162.165 15.7622 163.321 14.3217 165.691 14.3217C169.62 14.3217 172.683 17.3179 172.683 21.4088C172.683 25.4998 169.62 28.5536 165.691 28.5536C163.263 28.5536 162.165 27.0555 162.165 27.0555V27.6893C162.165 27.9774 161.934 28.2079 161.645 28.2079H158.698V8.15647H162.165V15.7622ZM165.113 25.2693C163.784 25.2693 162.743 24.5779 162.165 23.7712V18.9312C162.686 18.1822 163.841 17.4331 165.113 17.4331C167.424 17.4331 169.216 18.8736 169.216 21.3512C169.216 23.8288 167.424 25.2693 165.113 25.2693ZM156.906 28.2655V20.1988C156.906 17.8941 156.444 16.6265 155.288 15.6469C154.248 14.7827 152.977 14.3217 151.474 14.3217C150.145 14.3217 148.816 14.725 147.775 15.7622V15.186C147.775 14.8979 147.544 14.6674 147.255 14.6674H144.481V28.2655H147.949V18.816C148.642 18.0093 149.74 17.4908 150.781 17.4908C152.688 17.4908 153.439 18.355 153.439 20.6022V28.2655H156.906ZM136.044 14.3217C133.674 14.3217 132.519 15.7622 132.519 15.7622V8.15647H129.051V28.2079H131.998C132.287 28.2079 132.519 27.9774 132.519 27.6893V27.0555C132.519 27.0555 133.617 28.5536 136.044 28.5536C139.974 28.5536 143.037 25.4998 143.037 21.4088C143.094 17.3179 140.031 14.3217 136.044 14.3217ZM132.519 23.7712C133.097 24.5779 134.137 25.2693 135.466 25.2693C137.778 25.2693 139.569 23.8288 139.569 21.3512C139.569 18.8736 137.778 17.4331 135.466 17.4331C134.195 17.4331 133.039 18.1822 132.519 18.9312V23.7712ZM126.104 14.3217C127.144 14.3217 127.722 14.4946 127.722 14.4946V17.7212C127.722 17.7212 124.832 16.7417 123.041 18.816V28.2655H119.573V14.6674H122.521C122.81 14.6674 123.041 14.8979 123.041 15.186V15.7622C123.619 15.0131 125.006 14.3217 126.104 14.3217ZM73.7451 28.8417C71.7802 26.3641 70.5088 24.0593 70.1043 22.1579C69.9309 21.3512 69.8731 20.6022 69.9887 19.9684C70.0465 19.3922 70.2776 18.8736 70.5666 18.4703C71.2601 17.4908 72.4159 16.8569 73.7451 16.8569C75.0743 16.8569 76.2879 17.4331 76.9236 18.4703C77.2126 18.9312 77.4437 19.3922 77.5015 19.9684C77.6171 20.6022 77.5593 21.3512 77.3859 22.1579C76.9814 24.0593 75.71 26.3641 73.7451 28.8417ZM84.8988 34.7765C86.6903 34.085 87.9617 32.4717 88.1929 30.5703C88.3084 29.5908 88.1929 28.7265 88.0195 27.8046C87.9569 27.6174 87.8774 27.4302 87.7901 27.2248C87.7162 27.0508 87.6367 26.8636 87.5572 26.6522C87.4127 26.3641 87.2827 26.0616 87.1526 25.7591C87.0226 25.4566 86.8926 25.1541 86.7481 24.866V24.8084C84.2631 19.4498 81.6047 13.976 78.8307 8.61742L78.7151 8.38694C78.4262 7.81075 78.1372 7.23456 77.8483 6.71599C77.5593 6.1398 77.2126 5.56361 76.808 5.10266C76.0567 4.23837 75.0165 3.77742 73.9185 3.77742C72.8204 3.77742 71.7802 4.23837 71.0289 5.10266C70.6244 5.62123 70.2776 6.1398 69.9887 6.71599L69.9886 6.71611C69.6997 7.29226 69.4108 7.86841 69.1218 8.38694L69.0062 8.61742C66.1745 13.976 63.5161 19.4498 61.0311 24.8084L60.9733 24.866C60.6843 25.4422 60.3954 26.076 60.1642 26.6522L60.1642 26.6522C59.9908 27.0555 59.8175 27.4589 59.7019 27.8046C59.2973 28.8417 59.2395 29.706 59.3551 30.6279C59.5863 32.4717 60.8577 34.085 62.6492 34.8341C63.4583 35.1222 64.3829 35.295 65.3654 35.1798C66.2901 35.0646 67.2147 34.7765 68.1394 34.2579C69.4108 33.5089 70.74 32.4141 72.2425 30.7431C69.8731 27.8046 68.3705 25.0965 67.8504 22.7341C67.5615 21.6393 67.5037 20.6022 67.677 19.6803C67.8504 18.7584 68.1394 17.9517 68.6595 17.2027C69.7575 15.6469 71.6646 14.6674 73.7451 14.6674C75.8256 14.6674 77.7327 15.5893 78.8307 17.2027C79.3508 17.9517 79.6398 18.7584 79.8132 19.6803C79.9287 20.6022 79.871 21.6393 79.6398 22.7341C79.0619 25.0965 77.6171 27.7469 75.2477 30.6855C76.7502 32.3565 78.0216 33.4512 79.3508 34.2003C80.3333 34.7188 81.2001 35.0069 82.1248 35.1222C83.1073 35.2374 84.0319 35.1222 84.8988 34.7765Z" fill="#AEC0CE"/>
</g>
</g>
</svg>
