<svg width="230" height="39" viewBox="0 0 230 39" fill="none" xmlns="http://www.w3.org/2000/svg">
<g id="Item">
<g id="google">
<path id="g_1_" d="M85.4587 13.552H71.9167V17.545H81.5466C81.0651 23.1715 76.3705 25.652 71.9769 25.652C66.3194 25.652 61.3841 21.175 61.3841 14.9435C61.3841 8.83299 66.0786 4.11399 71.9769 4.11399C76.5511 4.11399 79.1993 7.01799 79.1993 7.01799L81.9679 4.11399C81.9679 4.11399 78.3567 0.120991 71.7964 0.120991C63.4304 0.0604905 56.9905 7.13899 56.9905 14.8225C56.9905 22.3245 63.0693 29.645 72.0371 29.645C79.9215 29.645 85.6995 24.2605 85.6995 16.214C85.6995 14.52 85.4587 13.552 85.4587 13.552Z" fill="#AEC0CE"/>
<path id="o_2_" fill-rule="evenodd" clip-rule="evenodd" d="M86.9634 20.0254C86.9634 14.9434 90.9357 10.5874 96.4729 10.5874C101.047 10.5874 105.982 13.8544 106.043 20.1464C106.043 25.7124 101.829 29.6449 96.5932 29.6449C90.8153 29.6449 86.9634 25.2284 86.9634 20.0254ZM101.829 20.1464C101.829 16.6374 99.2414 14.3989 96.533 14.3989C93.4635 14.3989 91.1162 16.8189 91.1764 20.0859C91.1764 23.4739 93.5237 25.8939 96.533 25.8939C99.3016 25.8939 101.829 23.6554 101.829 20.1464Z" fill="#AEC0CE"/>
<path id="o_1_" fill-rule="evenodd" clip-rule="evenodd" d="M107.667 20.0254C107.667 14.9434 111.64 10.5874 117.177 10.5874C121.751 10.5874 126.686 13.8544 126.747 20.1464C126.747 25.7124 122.534 29.6449 117.297 29.6449C111.519 29.6449 107.667 25.2284 107.667 20.0254ZM122.534 20.1464C122.534 16.6374 119.946 14.3989 117.237 14.3989C114.168 14.3989 111.82 16.8189 111.881 20.0859C111.881 23.4739 114.228 25.8939 117.237 25.8939C120.006 25.8939 122.534 23.6554 122.534 20.1464Z" fill="#AEC0CE"/>
<path id="g" fill-rule="evenodd" clip-rule="evenodd" d="M128.372 20.1465C128.372 15.1249 132.344 10.6479 137.46 10.6479C139.687 10.6479 141.372 11.4949 142.455 12.8259V11.1924H146.428V28.3139C146.428 35.0294 142.576 38.236 137.52 38.236C132.886 38.236 130.298 35.3925 129.034 32.67L132.705 31.1574C133.247 32.3675 134.691 34.5455 137.58 34.5455C140.589 34.5455 142.576 32.549 142.576 29.2819V27.4065C141.432 28.677 140.048 29.7055 137.339 29.7055C133.006 29.7055 128.372 25.8335 128.372 20.1465ZM142.877 20.2069C142.877 16.5769 140.289 14.3989 137.821 14.3989C135.173 14.3989 132.585 16.5164 132.524 20.2674C132.524 23.716 135.052 25.9544 137.761 25.9544C140.349 25.9544 142.877 23.9579 142.877 20.2069Z" fill="#AEC0CE"/>
<path id="e" fill-rule="evenodd" clip-rule="evenodd" d="M155.396 20.0859C155.396 14.3989 159.428 10.5874 164.243 10.5874C167.974 10.5874 170.803 13.1284 172.067 16.0324L172.729 17.6054L160.03 22.9294C160.812 24.3814 162.016 25.8334 164.664 25.8334C167.012 25.8334 168.456 24.5629 169.299 23.2319L172.609 25.4704C171.164 27.4064 168.637 29.6449 164.664 29.6449C159.909 29.6449 155.396 26.0754 155.396 20.0859ZM167.914 16.3349C167.312 15.1854 166.109 14.2779 164.363 14.2779C161.655 14.2779 159.007 17.1214 159.488 19.9044L167.914 16.3349Z" fill="#AEC0CE"/>
<path id="l" d="M149.377 29.1003H153.53V1.02832H149.377V29.1003Z" fill="#AEC0CE"/>
</g>
</g>
</svg>
