<svg width="230" height="39" viewBox="0 0 230 39" fill="none" xmlns="http://www.w3.org/2000/svg">
<g id="Item">
<g id="netflix">
<path id="Shape" fill-rule="evenodd" clip-rule="evenodd" d="M69.8895 33.1831L69.8895 33.1831L69.8894 33.1831C69.2208 33.2516 68.5421 33.3212 67.8472 33.4067L62.2715 17.2763V34.0931C60.5291 34.2647 58.9609 34.4935 57.2766 34.7795V3.94873H61.923L68.2537 21.4519V3.94873H73.1905V32.7775C72.0997 32.9566 71.009 33.0684 69.8897 33.1831L69.8896 33.1831L69.8896 33.1831L69.8895 33.1831ZM86.2632 15.2151H86.2632L86.2633 15.2151C87.4173 15.1872 88.5444 15.1599 89.3949 15.1599V19.9647C87.2459 19.9647 84.6904 19.9647 82.8318 20.0791V27.2291C83.7369 27.1746 84.6478 27.1142 85.5628 27.0536L85.5629 27.0536L85.5631 27.0536H85.5632H85.5632H85.5632H85.5632C87.5251 26.9236 89.5054 26.7923 91.4857 26.7143V31.3475L77.9531 32.3771V3.94873H91.4857V8.75353H82.8318V15.2743C83.8129 15.2743 85.0527 15.2444 86.263 15.2151H86.2631H86.2631H86.2632H86.2632ZM104.554 8.81073H109.607C109.607 8.81073 109.607 3.94873 109.665 3.94873H94.6221V8.81073H99.675V31.0043C101.243 30.9471 102.927 30.9471 104.554 30.9471V8.81073ZM117.564 14.9311H124.243V19.7359H117.564V30.6611H112.743V3.94873H126.392V8.75353H117.564V14.9311ZM139.414 26.6583C137.734 26.561 136.041 26.4631 134.349 26.4283V3.94873H129.47V30.9471C133.942 31.0615 138.298 31.2903 142.654 31.5763V26.8287C141.582 26.7838 140.5 26.7212 139.414 26.6583ZM148.426 32.025L148.427 32.025C149.473 32.0873 150.536 32.1506 151.599 32.2627V3.94873H146.778V31.9195C147.321 31.9592 147.871 31.9919 148.426 32.025ZM166.757 18.5919L172.972 3.94873H167.571L164.144 12.0139L160.949 3.94873H155.722L161.414 18.4203L155.141 32.4915C155.838 32.5831 156.535 32.6563 157.232 32.7295C158.278 32.8393 159.323 32.9491 160.369 33.1207L163.97 24.9411L167.454 33.8643C168.105 33.9645 168.749 34.0717 169.391 34.1785C170.581 34.3767 171.764 34.5737 172.972 34.7223L166.757 18.5919Z" fill="#AEC0CE"/>
</g>
</g>
</svg>
