<svg width="230" height="39" viewBox="0 0 230 39" fill="none" xmlns="http://www.w3.org/2000/svg">
<g id="Item">
<g id="slack">
<g id="Group-4">
<path id="Fill-1" d="M72.2388 3.962C71.709 2.22627 69.8549 1.29165 68.1332 1.82572C66.4115 2.35979 65.4845 4.22903 66.0142 5.96476L74.4902 32.2677C75.0862 33.8699 76.8079 34.8045 78.4634 34.3372C80.1851 33.8031 81.2446 32.0006 80.7148 30.2649C80.7148 30.1981 72.2388 3.962 72.2388 3.962Z" fill="#AEC0CE"/>
<path id="Fill-3" d="M59.1275 8.30135C58.5977 6.56563 56.7436 5.63101 55.0219 6.16508C53.3002 6.69914 52.3731 8.56839 52.9029 10.3041L61.3789 36.607C61.9749 38.2092 63.6966 39.1438 65.352 38.6765C67.0737 38.1425 68.1332 36.34 67.6035 34.6042C67.6035 34.5375 59.1275 8.30135 59.1275 8.30135Z" fill="#AEC0CE"/>
</g>
<path id="Fill-5" d="M82.9662 25.7919C84.6879 25.2579 85.615 23.3886 85.0852 21.6529C84.5555 19.9172 82.7013 18.9826 80.9796 19.5166L54.8232 27.995C53.2339 28.5958 52.3068 30.3315 52.7704 32.0005C53.3001 33.7362 55.088 34.8044 56.8097 34.2703C56.9422 34.2703 82.9662 25.7919 82.9662 25.7919Z" fill="#AEC0CE"/>
<path id="Fill-6" d="M60.253 33.2022C61.9747 32.6682 64.1599 31.9338 66.4776 31.1327C65.9478 29.397 65.2194 27.194 64.4248 24.8574L58.2002 26.9269L60.253 33.2022Z" fill="#AEC0CE"/>
<g id="Group-10">
<path id="Fill-7" d="M73.4307 28.8629C75.8146 28.0618 77.9998 27.3942 79.6553 26.7934C79.1255 25.0577 78.3971 22.8546 77.6025 20.5181L71.3779 22.5876L73.4307 28.8629Z" fill="#AEC0CE"/>
<path id="Fill-9" d="M78.6619 12.5068C80.3836 11.9727 81.3107 10.1035 80.7809 8.36776C80.2512 6.63203 78.3971 5.69741 76.6754 6.23148L50.5851 14.7766C48.9959 15.3774 48.0688 17.1131 48.5323 18.7821C49.0621 20.5846 50.85 21.6527 52.5717 21.0519C52.6379 21.0519 78.6619 12.5068 78.6619 12.5068Z" fill="#AEC0CE"/>
</g>
<path id="Fill-11" d="M56.0152 19.9171C57.7369 19.383 59.9221 18.6487 62.2398 17.8476C61.4451 15.4443 60.7829 13.2412 60.187 11.5723L53.9624 13.6418L56.0152 19.9171Z" fill="#AEC0CE"/>
<path id="Fill-12" d="M69.1265 15.6446C71.5104 14.8435 73.6956 14.1759 75.3511 13.5751C74.5565 11.1718 73.8943 8.96877 73.2983 7.2998L67.0737 9.36932L69.1265 15.6446Z" fill="#AEC0CE"/>
<path id="Fill-13" d="M109.387 10.9047C110.513 11.4387 110.646 11.7725 109.718 13.5083C108.791 15.3107 108.593 15.3775 107.401 14.9102C105.944 14.3094 104.156 13.842 102.964 13.842C101.044 13.842 99.7857 14.5096 99.7857 15.5778C99.7857 19.0492 110.844 17.18 110.844 24.6569C110.844 28.3954 107.666 30.8655 102.898 30.8655C100.382 30.8655 97.2693 29.9976 95.1503 28.9295C94.0908 28.3954 94.0246 28.0616 94.9517 26.2592C95.7463 24.7237 96.0112 24.5234 97.1369 24.9907C98.991 25.7918 101.242 26.3927 102.832 26.3927C104.62 26.3927 105.745 25.6583 105.745 24.5902C105.745 21.1855 94.4881 22.7877 94.4881 15.5778C94.4881 11.7725 97.6667 9.16895 102.368 9.16895C104.62 9.36922 107.467 10.0368 109.387 10.9047Z" fill="#AEC0CE"/>
<path id="Fill-14" d="M118.327 2.09268V29.8643C118.327 30.2648 117.864 30.7321 117.268 30.7321H114.354C113.692 30.7321 113.294 30.2648 113.294 29.8643V2.09268C113.294 0.690746 113.692 0.623988 115.811 0.623988C118.195 0.557229 118.327 0.757505 118.327 2.09268Z" fill="#AEC0CE"/>
<path id="Fill-15" fill-rule="evenodd" clip-rule="evenodd" d="M138.855 29.597V17.6472C138.855 12.44 135.345 9.36914 129.783 9.36914C127.267 9.36914 124.485 10.1702 122.499 11.5054C121.439 12.173 121.439 12.5068 122.499 14.1758C123.625 15.8447 123.823 15.9115 124.883 15.3107C126.207 14.5096 127.863 13.9755 129.253 13.9755C132.167 13.9755 133.889 15.3107 133.889 17.5137V18.9156C132.498 18.3148 130.776 17.981 128.922 17.981C123.956 17.981 120.711 20.6513 120.711 24.6569C120.711 28.3953 123.625 30.9322 127.929 30.9322C130.18 30.9322 132.432 29.9976 133.955 28.2618L133.889 29.5302C133.822 30.1978 134.286 30.6651 134.948 30.6651H137.795C138.391 30.6651 138.855 30.2646 138.855 29.597ZM128.525 26.9267C126.737 26.9267 125.545 25.992 125.545 24.5901C125.545 22.8544 127.333 21.5192 129.982 21.5192C131.24 21.5192 132.697 21.7195 133.822 22.1868V24.056C132.697 25.8585 130.71 26.9267 128.525 26.9267Z" fill="#AEC0CE"/>
<g id="Group-19">
<path id="Fill-16" d="M158.522 10.9717C159.581 11.5725 159.581 11.9063 158.456 13.7088C157.396 15.3778 157.198 15.5113 156.006 14.9104C155.145 14.4431 153.688 14.0426 152.562 14.0426C148.92 14.0426 146.536 16.4459 146.536 20.1176C146.536 23.9229 148.92 26.4597 152.562 26.4597C153.82 26.4597 155.41 25.9924 156.403 25.3915C157.462 24.7907 157.661 24.7907 158.787 26.4597C159.78 27.9951 159.78 28.3289 158.853 28.9965C157.264 30.1314 154.681 30.9993 152.43 30.9993C145.742 30.9993 141.239 26.66 141.239 20.1844C141.239 13.7088 145.742 9.43624 152.496 9.43624C154.615 9.36948 156.999 10.0371 158.522 10.9717Z" fill="#AEC0CE"/>
<path id="Fill-18" d="M180.44 28.0618C181.301 29.13 180.97 29.5305 178.851 30.2649C176.732 31.066 176.401 30.9992 175.673 29.9978L169.647 21.92L166.932 24.5236V29.7975C166.932 30.1981 166.468 30.6654 165.872 30.6654H162.959C162.296 30.6654 161.899 30.1981 161.899 29.7975V2.09271C161.899 0.690782 162.296 0.624023 164.415 0.624023C166.866 0.624023 166.932 0.824299 166.932 2.09271V17.8477L175.143 9.90347C176.07 9.03561 176.534 9.10237 178.189 10.1705C179.977 11.3054 180.109 11.6392 179.249 12.5071L173.156 18.5153L180.44 28.0618Z" fill="#AEC0CE"/>
</g>
</g>
</g>
</svg>
